<?xml version="1.0" encoding="utf-8"?>
<!-- Generator: Adobe Illustrator 27.3.1, SVG Export Plug-In . SVG Version: 6.00 Build 0)  -->
<svg version="1.1" id="a" xmlns="http://www.w3.org/2000/svg" xmlns:xlink="http://www.w3.org/1999/xlink" x="0px" y="0px"
	 viewBox="0 0 144 144" style="enable-background:new 0 0 144 144;" xml:space="preserve">
<style type="text/css">
	.st0{fill:#00008B;}
	.st1{fill:#FFFFFF;}
</style>
<g>
	<path class="st0" d="M72.6,141.7c-0.9,0-1.7-0.4-2.1-1.2l-8.7-13.8c-0.6,1.2-1.8,2-3.2,2H27.9c-5.5,0-11.6-5.2-12.1-13.7
		c0,0,0-0.1,0-0.1c0-2.4,0.5-4.6,1.4-6.4c-0.9-0.4-1.5-1.3-1.5-2.3l0.9-66.1c0-0.3,0.1-0.6,0.2-0.9c0.8-2.1,3.1-7.1,7.4-10.4
		c0.5-0.5,1.1-0.8,1.9-0.8h0.1c0.4,0,0.7,0.1,1.1,0.2c0.1-0.3,0.2-0.7,0.4-0.9c1.4-1.9,6.4-2,6.4-2c0.5,0,1.2,0,1.9,0.4
		c0.3,0.2,0.6,0.4,0.8,0.7c0,0,0.1-0.1,0.1-0.1c0.4-0.3,0.9-0.5,1.5-0.5c0.3,0,0.6,0,0.8,0.1c2.4,0.8,5.1,2,8.6,3.5l1.2,0.5
		c2.9,1.3,5.3,2.6,7.4,3.9c0-0.7,0.1-2.6,1-4.2c-0.3-0.9-0.6-2-0.6-3.1c0-1.8,0.7-3.5,1.4-5.1c-0.6-1.4-1-2.9-1-4.5
		c0-7.1,7.2-13.4,15.5-13.4c8.2,0,15.1,6.1,15.1,13.4c0,1.3-0.3,2.4-0.6,3.5c1,1.5,1.9,3.5,1.9,6.1c0,1.2-0.2,2.4-0.7,3.6
		c0.4,1,0.7,2.2,0.7,3.4v0.3c6.2-4.6,17.3-12,30.4-12.4l0.5,0c3,0,3,3.2,3,4.3v75.2c0,2.2-1.4,3.6-3.5,3.8
		c-6.6,1.5-12.4,3.3-17.5,5.4h12.9c3,0,3.8,2.1,3.8,3.4v2.2c0,0.5-0.1,1-0.3,1.4h0.8c2.3,0,3.8,2,3.8,3.8v3.5c0,2.3-2,3.8-3.8,3.8
		H85.6c-1.1,0-2-0.5-2.6-1.4c0,0-0.1-0.1-0.1-0.2l-8.2,13.8C74.3,141.2,73.5,141.7,72.6,141.7C72.6,141.7,72.6,141.7,72.6,141.7z
		 M70.5,123.7v-9.6l-4.2,1.5L70.5,123.7z M54.4,117.6c0.8,0,1.4,0.2,1.9,0.5L55,116c-0.5,0.4-1.1,0.6-1.6,0.6
		c-0.6,0-1.3-0.2-1.8-0.7c-0.9-0.8-9.2-5.5-17.3-5.5c-0.6,0-1.3,0-1.8,0.1c-3.4,0.4-6,1.9-6.3,3.6c0,0.1,0,0.1,0,0.2
		c-0.1,0.4-0.1,0.6,0.2,1c0.6,0.9,2.3,1.7,3.9,1.9c0,0,0.1,0,0.1,0c1.6,0.3,8,0.5,16.8,0.5c2.9,0,6.2,0,6.8-0.1c0.2,0,0.2,0,0.4,0
		C54.3,117.6,54.4,117.6,54.4,117.6z M88.5,117.3c0.4-0.1,0.8-0.2,1.1-0.2h0.8c0-0.4,0-0.9,0.2-1.5c-0.1,0-0.2,0-0.2,0
		c-0.3,0-0.6,0-0.9-0.1L88.5,117.3z M62.9,107.9c3.6-2,7.4-3.8,9.7-3.8h0.1c0.2,0,0.5,0,0.7,0.1c-0.4-0.6-0.6-1.2-0.6-2V34.4
		c0-0.7,0.3-1.4,0.9-1.9c0.1-0.1,0.2-0.1,0.3-0.2c-0.5-0.1-0.9-0.1-1.4-0.1c-1.2,0-2.4,0.1-3.3,0.3c0.3,0.1,0.6,0.3,0.9,0.6
		c0.5,0.5,0.7,1.2,0.7,1.9L69,57.2c-0.1,1.3-1.2,2.3-2.5,2.3c0,0-0.1,0-0.1,0c-0.6,0-1.2-0.3-1.6-0.7L62.9,107.9z"/>
	<path class="st1" d="M72.6,6c7,0,12.6,5.2,12.6,10.9c0,1.3-0.4,2.6-0.9,3.9c1.3,1.7,2.2,3.5,2.2,5.7c0,1.3-0.4,2.6-0.9,3.5
		c0.4,0.9,0.9,2.2,0.9,3.5v5.2c3.9-2.6,17-14.3,33-14.8c0.2,0,0.3,0,0.4,0c0.4,0,0.5,0.3,0.5,1.8c0,9.1,0,66.1,0,75.2
		c0,0.9-0.4,1.3-1.3,1.3c-11.3,2.6-20.9,6.1-28.7,10.9c-1.3-1.7-3-3.5-6.1-4.8c0,0-2.6-73.9-2.6-74.3c0-1.3-1.1-2.4-2.6-3
		s-4.3-1.3-6.5-1.3c-2.2,0-4.3,0.3-5.7,0.9c-1.3,0.6-3.5,2.2-3.5,3.5l-0.4,7L60.4,108c-3,2.6-5.2,4.3-7,6.1
		c-1.2-1.2-10.4-6.2-19.1-6.2c-0.7,0-1.5,0-2.2,0.1c-4.4,0.5-7.9,2.7-8.4,5.7c-0.9,3.5,3.2,5.6,6.2,6c2.2,0.4,10.8,0.5,17.2,0.5
		c3.7,0,6.7,0,7.2-0.1h0.1c0.8,0,1.2,0.4,1.6,0.9c0.4,0.5,3.5,3.9,3.5,3.9c0.4,0.4,0,1.3-0.9,1.3H27.9c-4.1,0-9.2-4.1-9.6-11.3
		c0-8.9,7.5-11.3,14.7-11.3c2.9,0,5.7,0.4,7.9,0.9c3.5,0.9,7,1.7,10.4,3.5c0.2,0.1,0.3,0.1,0.5,0.1c0.6,0,0.8-0.6,0.4-1
		c-3-2.6-6.5-4.3-10.4-5.2c-1.3-0.4-2.6-0.4-3.5-0.9V28.3c2.6,0.9,5.6,2.2,9.6,3.9c4.8,2.2,8.3,4.3,10.9,6.5c0,0,0-3.4,0-4.8
		c0-1.4,0.4-3.1,1.3-3.9c-0.4-0.9-0.9-2.2-0.9-3.5c0-1.7,0.9-3.5,1.7-5.2c-0.9-1.3-1.3-3-1.3-4.4C59.6,11.3,65.7,6,72.6,6
		 M64.8,18.7c2.2-1.3,5.2-2.2,7.8-2.2c2.6,0,5.2,0.4,7,1.7v-0.9c0-2.6-3.5-5.7-7.8-5.7c-4.4,0.2-7.4,3.2-7.4,5.8
		C64.4,17.8,64.4,18.3,64.8,18.7 M63.5,26.9c0.9-0.4,6.5-1.7,8.7-1.7c2.2,0.1,7.6,0.5,9.1,1.8c0-0.9-0.2-1.1-0.9-2.2
		c-0.7-1-2.6-3.5-7.8-3.5c-5.2,0-8.2,3.2-8.7,3.9C63.4,25.9,63.5,26.9,63.5,26.9 M109.7,42.7h1.7c0.4,0,0.9-0.4,0.9-0.9V30.9
		c0-0.4-0.4-0.4-0.4-0.4l-2.2,0.9c-0.4,0-0.4,0.4-0.4,0.9l-0.5,9.5C108.8,42.2,109.2,42.7,109.7,42.7 M110.5,49.1
		c0.9,0,1.7-0.9,1.7-1.7c0-0.8-0.9-1.7-1.7-1.7c-0.8,0-1.7,0.4-1.7,1.7C108.8,48.3,109.7,49.1,110.5,49.1 M110.5,56.5
		c0.9,0,1.7-0.9,1.7-1.7c0-0.8-0.9-1.7-1.7-1.7c-0.8,0-1.7,0.9-1.7,1.7C108.8,55.7,109.7,56.5,110.5,56.5 M90,103.1h0.4
		c3.5-2.6,10.9-7,22.6-8.3c0.7-0.6,1-1,1-1.3c0-0.4-0.4-0.4-0.9-0.4c-12.2,1.3-19.6,6.1-23.5,8.7c-0.4,0-0.4,0.4,0,0.9L90,103.1
		 M34,27.8c0.3,0,0.6,0,0.8,0.1v72.6h-5.2V28.8C29.9,28.4,32.6,27.8,34,27.8 M26.1,30.5C26.1,30.5,26,30.5,26.1,30.5L26.1,30.5
		L26.1,30.5 M26,30.6v70.8c-3,0.9-5.6,2.6-7.8,4.8l0.9-66.1C19.6,38.8,21.8,33.6,26,30.6 M75.3,34.4l2.6,0.4c0.4,0,0.4,0.5,0.4,0.9
		l3,70.4l-5.1-3c-0.5,0-0.9-0.5-0.9-0.9V34.4 M68.3,34.8L68.3,34.8 M68.3,34.8L66.5,57l-0.4-22.2H68.3 M72.7,106.6
		c3.6,0,15.1,6.9,15.1,6.9l-15.2,25.7L57,114.4C57,114.4,68.8,106.6,72.7,106.6C72.6,106.6,72.6,106.6,72.7,106.6 M72.7,132.4
		c0.3,0,0.3-0.2,0.3-0.6v-20.4c0-0.3-0.1-0.6-0.4-0.6c-0.1,0-0.3,0-0.5,0.1l-8.3,3c-0.7,0.2-0.9,0.9-0.4,1.7l8.7,16.5
		c0.1,0.2,0.3,0.3,0.4,0.3C72.6,132.4,72.6,132.4,72.7,132.4 M114.8,112.6c0.4,0,1.3,0,1.3,0.9v2.2c0,0.9-0.9,1.3-1.3,1.3
		c0,0-9.2,0-15.5,0c-3.2,0-5.6,0-5.8,0c-0.6,0-1-0.3,0-0.8c2.2-1.3,4.2-2.5,6.4-3.4c0-0.1,0.2-0.2,0.5-0.2c0.1,0,1.7,0,3.9,0
		C108.5,112.6,114.8,112.6,114.8,112.6 M119.1,119.6c0.9,0,1.3,0.9,1.3,1.3v3.5c0,0.9-0.9,1.3-1.3,1.3H85.6c-0.4,0-0.7-0.3-0.4-0.9
		c0.9-1.8,2.2-3.5,3.5-4.8c0.3-0.3,0.7-0.4,0.9-0.4H119.1 M72.6,1c-9.6,0-18,7.4-18,15.9c0,1.5,0.3,3.1,0.8,4.5
		c-0.6,1.5-1.2,3.3-1.2,5.1c0,1.1,0.2,2.1,0.4,3c-0.1,0.1-0.1,0.3-0.1,0.4c-1.4-0.7-2.9-1.5-4.5-2.2c0,0-0.1,0-0.1-0.1l-1.2-0.5
		c-3.5-1.5-6.2-2.7-8.7-3.5c-0.5-0.2-1.1-0.3-1.6-0.3c-0.4,0-0.8,0.1-1.2,0.2c0,0,0,0,0,0c-1.3-0.6-2.5-0.6-3-0.6
		c-0.2,0-5.8,0-8.2,2.7c-1.3,0-2.5,0.6-3.4,1.5c-4.7,3.7-7.1,9.1-8,11.3c-0.2,0.6-0.3,1.1-0.3,1.7l-0.9,66.1c0,1.1,0.3,2.2,1,3.1
		c-0.6,1.7-0.9,3.6-0.9,5.7c0,0.1,0,0.2,0,0.3c0.5,9.9,8,16,14.6,16h30.7c1,0,1.9-0.2,2.7-0.6l7.1,11.3c0.9,1.5,2.5,2.3,4.2,2.3
		c0,0,0,0,0.1,0c1.7,0,3.3-1,4.2-2.5l6.7-11.4c0.6,0.2,1.3,0.3,2,0.3h33.5c3,0,6.3-2.5,6.3-6.3v-3.5c0-2.5-1.7-5.1-4.3-6v-1.4
		c0-2.4-1.4-4.8-4.2-5.6c1-0.2,1.9-0.5,2.9-0.7c3.3-0.3,5.6-2.9,5.6-6.3V25.7c0-1.1,0-2-0.3-2.8c-0.7-2.4-2.8-4-5.2-4h-0.4
		c-0.1,0-0.1,0-0.2,0c-11.5,0.4-21.4,5.7-28.1,10.2c0.2-0.9,0.3-1.8,0.3-2.6c0-2.2-0.6-4.3-1.7-6.4c0.2-1,0.4-2,0.4-3.2
		C90.2,8.3,82.1,1,72.6,1L72.6,1z M68.3,39.8L68.3,39.8L68.3,39.8L68.3,39.8z M67.2,62c1.2-0.2,2.3-0.8,3.1-1.7v41.7
		c-1.4,0.4-3,1-4.7,1.8L67.2,62L67.2,62z M29,114.3c0.6-0.4,1.8-1.1,3.7-1.3c0,0,0.1,0,0.1,0c0.3,0,1,0,1.5,0
		c3.7,0,7.5,1.1,10.5,2.3c-9.4,0-13.2-0.3-14-0.4c-0.1,0-0.2,0-0.2,0C29.9,114.7,29.4,114.5,29,114.3L29,114.3z M76.6,129.9
		C76.6,129.9,76.6,129.9,76.6,129.9L76.6,129.9L76.6,129.9z"/>
</g>
</svg>
